<svg width="2000" height="390" viewBox="0 0 2000 390" fill="none" xmlns="http://www.w3.org/2000/svg">
<g clip-path="url(#clip0)">
<rect width="2000" height="390" fill="#594DEB"/>
<g clip-path="url(#clip1)">
<path d="M680.945 155.072C707.552 139.125 741.397 158.218 741.509 189.238L741.97 317.946C742.084 349.684 706.962 368.907 680.29 351.704L576.631 284.848C551.725 268.785 552.327 232.16 577.747 216.924L680.945 155.072Z" fill="#3E31E5"/>
<path d="M663.749 167.13L664.812 329.061C664.905 343.231 649.346 351.947 637.311 344.467L527.289 276.084C515.725 268.897 516.019 251.968 527.827 245.187L663.749 167.13Z" fill="#3E31E5"/>
<path d="M384.539 110.956C394.842 81.5518 433.32 74.6949 453.146 98.7296L541.403 205.723C561.325 229.875 547.031 266.518 516.016 270.8L383.877 289.043C354.238 293.135 330.763 264.429 340.657 236.192L384.539 110.956Z" fill="#3E31E5"/>
<path d="M483.5 136L606 284H388L483.5 136Z" fill="#3E31E5"/>
<path d="M450 157L574 306H356L450 157Z" fill="#461ABF"/>
<path d="M400.885 176.26C410.158 149.797 444.788 143.625 462.631 165.257L601 333L391.39 361.939C364.714 365.622 343.587 339.786 352.492 314.372L400.885 176.26Z" fill="#9F97F9"/>
<path d="M543.052 168.369C535.786 148.035 553.298 127.477 574.528 131.417L604.717 137.019C626.412 141.046 631.71 169.708 612.887 181.222V181.222L588.734 195.997C573.579 205.268 553.733 198.263 547.755 181.533L543.052 168.369Z" fill="#3E31E5"/>
<path d="M526.738 165.486C513.648 149.536 523.461 125.425 543.969 123.15L582.673 118.857C605.763 116.295 620.365 142.994 605.752 161.053L584.787 186.962C574.428 199.764 554.926 199.832 544.477 187.101L526.738 165.486Z" fill="#9F97F9"/>
<path d="M459.411 405.696C476.444 380.08 516.331 396.681 510.158 426.818L508.648 434.189C506.543 444.469 498.865 452.71 488.758 455.536L484.593 456.701C459.594 463.691 439.363 435.847 453.736 414.232L459.411 405.696Z" fill="#281ADE"/>
<path d="M482.072 395.122C492.645 367.976 532.486 373.018 535.962 401.943L539.562 431.891C541.014 443.977 534.492 455.616 523.426 460.687L504.845 469.202C481.974 479.682 457.959 457.027 467.09 433.585L482.072 395.122Z" fill="#3E31E5"/>
<path d="M499.393 383.693C501.806 359.681 533.475 352.687 545.776 373.45L573.487 420.224C580.233 431.61 576.936 446.282 565.967 453.687L531.196 477.162C513.636 489.018 490.214 475.023 492.332 453.942L499.393 383.693Z" fill="#9F97F9"/>
<path d="M652.976 215.457C676.922 201.105 707.383 218.289 707.483 246.207L707.996 389.318C708.099 417.882 676.489 435.182 652.484 419.7L488.581 313.989L652.976 215.457Z" fill="#9F97F9"/>
</g>
<g clip-path="url(#clip2)">
<path d="M1568.95 -69.9284C1595.55 -85.8753 1629.4 -66.7816 1629.51 -35.7624L1629.97 92.9461C1630.08 124.684 1594.96 143.907 1568.29 126.704L1464.63 59.8485C1439.72 43.785 1440.33 7.1603 1465.75 -8.07588L1568.95 -69.9284Z" fill="#3E31E5"/>
<path d="M1551.75 -57.87L1552.81 104.061C1552.91 118.231 1537.35 126.947 1525.31 119.467L1415.29 51.0842C1403.72 43.8967 1404.02 26.968 1415.83 20.1873L1551.75 -57.87Z" fill="#3E31E5"/>
<path d="M1272.54 -114.044C1282.84 -143.448 1321.32 -150.305 1341.15 -126.27L1429.4 -19.2774C1449.33 4.87469 1435.03 41.5181 1404.02 45.8L1271.88 64.043C1242.24 68.135 1218.76 39.4287 1228.66 11.1916L1272.54 -114.044Z" fill="#3E31E5"/>
<path d="M1371.5 -89L1494 59H1276L1371.5 -89Z" fill="#3E31E5"/>
<path d="M1338 -68L1462 81H1244L1338 -68Z" fill="#461ABF"/>
<path d="M1288.89 -48.74C1298.16 -75.2034 1332.79 -81.3746 1350.63 -59.7434L1489 108L1279.39 136.939C1252.71 140.622 1231.59 114.786 1240.49 89.3725L1288.89 -48.74Z" fill="#9F97F9"/>
<path d="M1347.41 180.696C1364.44 155.08 1404.33 171.681 1398.16 201.818L1396.65 209.189C1394.54 219.469 1386.86 227.71 1376.76 230.536L1372.59 231.701C1347.59 238.691 1327.36 210.847 1341.74 189.232L1347.41 180.696Z" fill="#281ADE"/>
<path d="M1370.07 170.122C1380.64 142.976 1420.49 148.018 1423.96 176.943L1427.56 206.891C1429.01 218.977 1422.49 230.616 1411.43 235.687L1392.85 244.202C1369.97 254.682 1345.96 232.027 1355.09 208.585L1370.07 170.122Z" fill="#3E31E5"/>
<path d="M1387.39 158.693C1389.81 134.681 1421.48 127.687 1433.78 148.45L1461.49 195.224C1468.23 206.61 1464.94 221.282 1453.97 228.687L1419.2 252.162C1401.64 264.018 1378.21 250.023 1380.33 228.942L1387.39 158.693Z" fill="#9F97F9"/>
<path d="M1540.98 -9.54277C1564.92 -23.8949 1595.38 -6.71058 1595.48 21.2067L1596 164.318C1596.1 192.882 1564.49 210.182 1540.48 194.7L1376.58 88.9891L1540.98 -9.54277Z" fill="#9F97F9"/>
</g>
</g>
<defs>
<clipPath id="clip0">
<rect width="2000" height="390" fill="white"/>
</clipPath>
<clipPath id="clip1">
<rect width="415" height="415" fill="white" transform="translate(333 75)"/>
</clipPath>
<clipPath id="clip2">
<rect width="415" height="415" fill="white" transform="translate(1221 -150)"/>
</clipPath>
</defs>
</svg>
