<svg width="2000" height="390" viewBox="0 0 2000 390" fill="none" xmlns="http://www.w3.org/2000/svg">
    <g clip-path="url(#clip0)">
    <rect width="2000" height="390" fill="#594DEB"/>
    <g clip-path="url(#clip1)">
    <path d="M680.945 155.072C707.552 139.125 741.397 158.218 741.509 189.238L741.97 317.946C742.084 349.684 706.962 368.907 680.29 351.704L576.631 284.848C551.725 268.785 552.327 232.16 577.747 216.924L680.945 155.072Z" fill="#3E31E5"/>
    <path d="M663.749 167.13L664.812 329.061C664.905 343.231 649.346 351.947 637.311 344.467L527.289 276.084C515.725 268.897 516.019 251.968 527.827 245.187L663.749 167.13Z" fill="#3E31E5"/>
    <path d="M384.539 110.956C394.842 81.5518 433.32 74.6949 453.146 98.7296L541.403 205.723C561.325 229.875 547.031 266.518 516.016 270.8L383.877 289.043C354.238 293.135 330.763 264.429 340.657 236.192L384.539 110.956Z" fill="#3E31E5"/>
    <path d="M482.5 134L605 282H387L482.5 134Z" fill="#3E31E5"/>
    <path d="M450 157L574 306H356L450 157Z" fill="#461ABF"/>
    <path d="M400.885 176.26C410.158 149.797 444.788 143.625 462.631 165.257L601 333L391.39 361.939C364.714 365.622 343.587 339.786 352.492 314.372L400.885 176.26Z" fill="#9F97F9"/>
    <path d="M547.706 158.729C539.04 138.952 555.074 117.223 576.528 119.672L607.034 123.155C628.958 125.658 636.241 153.881 618.267 166.68V166.68L595.204 183.104C580.733 193.409 560.447 187.806 553.317 171.534L547.706 158.729Z" fill="#3E31E5"/>
    <path d="M526.168 147.442C514.088 130.627 525.551 107.126 546.239 106.294L589.313 104.561C612.593 103.625 625.258 131.424 609.275 148.376L584.123 175.054C572.908 186.949 553.628 185.665 544.089 172.388L526.168 147.442Z" fill="#9F97F9"/>
    <path d="M459.411 405.696C476.444 380.08 516.331 396.681 510.158 426.818L508.648 434.189C506.543 444.469 498.865 452.71 488.758 455.536L484.593 456.701C459.594 463.691 439.363 435.847 453.736 414.232L459.411 405.696Z" fill="#281ADE"/>
    <path d="M482.072 395.122C492.645 367.976 532.486 373.018 535.962 401.943L539.562 431.891C541.014 443.977 534.492 455.616 523.426 460.687L504.845 469.202C481.974 479.682 457.959 457.027 467.09 433.585L482.072 395.122Z" fill="#3E31E5"/>
    <path d="M499.393 383.693C501.806 359.681 533.475 352.687 545.776 373.45L573.487 420.224C580.233 431.61 576.936 446.282 565.967 453.687L531.196 477.162C513.636 489.018 490.214 475.023 492.332 453.942L499.393 383.693Z" fill="#9F97F9"/>
    <path d="M652.976 215.457C676.922 201.105 707.383 218.289 707.483 246.207L707.996 389.318C708.099 417.882 676.489 435.182 652.484 419.7L488.581 313.989L652.976 215.457Z" fill="#9F97F9"/>
    </g>
    <g clip-path="url(#clip2)">
    <path d="M1568.95 -71.9284C1595.55 -87.8753 1629.4 -68.7816 1629.51 -37.7624L1629.97 90.9461C1630.08 122.684 1594.96 141.907 1568.29 124.704L1464.63 57.8485C1439.72 41.785 1440.33 5.1603 1465.75 -10.0759L1568.95 -71.9284Z" fill="#3E31E5"/>
    <path d="M1551.75 -59.87L1552.81 102.061C1552.91 116.231 1537.35 124.947 1525.31 117.467L1415.29 49.0842C1403.72 41.8967 1404.02 24.968 1415.83 18.1873L1551.75 -59.87Z" fill="#3E31E5"/>
    <path d="M1272.54 -116.044C1282.84 -145.448 1321.32 -152.305 1341.15 -128.27L1429.4 -21.2774C1449.33 2.87469 1435.03 39.5181 1404.02 43.8L1271.88 62.043C1242.24 66.135 1218.76 37.4287 1228.66 9.19162L1272.54 -116.044Z" fill="#3E31E5"/>
    <path d="M1370.5 -93L1493 55H1275L1370.5 -93Z" fill="#3E31E5"/>
    <path d="M1338 -70L1462 79H1244L1338 -70Z" fill="#461ABF"/>
    <path d="M1288.89 -50.74C1298.16 -77.2034 1332.79 -83.3746 1350.63 -61.7434L1489 106L1279.39 134.939C1252.71 138.622 1231.59 112.786 1240.49 87.3725L1288.89 -50.74Z" fill="#9F97F9"/>
    <path d="M1347.41 178.696C1364.44 153.08 1404.33 169.681 1398.16 199.818L1396.65 207.189C1394.54 217.469 1386.86 225.71 1376.76 228.536L1372.59 229.701C1347.59 236.691 1327.36 208.847 1341.74 187.232L1347.41 178.696Z" fill="#281ADE"/>
    <path d="M1370.07 168.122C1380.64 140.976 1420.49 146.018 1423.96 174.943L1427.56 204.891C1429.01 216.977 1422.49 228.616 1411.43 233.687L1392.85 242.202C1369.97 252.682 1345.96 230.027 1355.09 206.585L1370.07 168.122Z" fill="#3E31E5"/>
    <path d="M1387.39 156.693C1389.81 132.681 1421.48 125.687 1433.78 146.45L1461.49 193.224C1468.23 204.61 1464.94 219.282 1453.97 226.687L1419.2 250.162C1401.64 262.018 1378.21 248.023 1380.33 226.942L1387.39 156.693Z" fill="#9F97F9"/>
    <path d="M1540.98 -11.5428C1564.92 -25.8949 1595.38 -8.71058 1595.48 19.2067L1596 162.318C1596.1 190.882 1564.49 208.182 1540.48 192.7L1376.58 86.9891L1540.98 -11.5428Z" fill="#9F97F9"/>
    </g>
    </g>
    <defs>
    <clipPath id="clip0">
    <rect width="2000" height="390" fill="white"/>
    </clipPath>
    <clipPath id="clip1">
    <rect width="415" height="415" fill="white" transform="translate(333 75)"/>
    </clipPath>
    <clipPath id="clip2">
    <rect width="415" height="415" fill="white" transform="translate(1221 -152)"/>
    </clipPath>
    </defs>
    </svg>
    