<svg width="2000" height="390" viewBox="0 0 2000 390" fill="none" xmlns="http://www.w3.org/2000/svg">
    <g clip-path="url(#clip0)">
    <rect width="2000" height="390" fill="#594DEB"/>
    <rect width="2000" height="310" fill="#594DEB"/>
    <path d="M1489.77 -125.8C1508.84 -139.123 1535.16 -126.608 1536.87 -103.406L1548.95 60.8661C1550.69 84.6056 1525.42 100.825 1504.56 89.3501L1366.26 13.2535C1346.79 2.53825 1345.32 -24.8949 1363.54 -37.6241L1489.77 -125.8Z" fill="#3E31E5"/>
    <path d="M1466.15 -109L1478.51 52.4621C1479.59 66.5916 1464.68 76.3717 1452.15 69.7489L1337.63 9.20769C1325.59 2.84432 1324.7 -14.0636 1336.01 -21.6514L1466.15 -109Z" fill="url(#paint0_linear)"/>
    <path d="M1173.4 -165.783C1181.13 -187.836 1209.99 -192.979 1224.86 -174.953L1335.8 -40.458C1350.74 -22.344 1340.02 5.1386 1316.76 8.34999L1150.66 31.2823C1128.43 34.3513 1110.82 12.8215 1118.24 -8.35628L1173.4 -165.783Z" fill="#3E31E5"/>
    <path d="M1255.5 -138L1378 10H1160L1255.5 -138Z" fill="#001AFF"/>
    <path d="M1258 -117L1382 32H1164L1258 -117Z" fill="#3E31E5"/>
    <path d="M1190.1 -117.174C1195.76 -133.347 1216.93 -137.118 1227.83 -123.899L1356.92 32.5975C1367.88 45.8811 1360.02 66.035 1342.96 68.39L1149.68 95.0737C1133.38 97.3243 1120.47 81.5358 1125.91 66.0054L1190.1 -117.174Z" fill="#9F97F9"/>
    <path d="M1250.51 170.981C1266.18 148.503 1301.38 163.974 1295.42 190.718L1291.52 208.231C1289.38 217.829 1281.81 225.281 1272.18 227.273L1262.47 229.281C1240.34 233.861 1223.97 209.046 1236.9 190.502L1250.51 170.981Z" fill="#281ADE"/>
    <path d="M1289.03 148.909C1296.15 128.735 1325.71 132.321 1327.8 153.612L1333.62 212.9C1334.45 221.348 1329.85 229.399 1322.16 232.983L1290.15 247.896C1274.09 255.38 1256.95 239.822 1262.84 223.111L1289.03 148.909Z" fill="#3E31E5"/>
    <path d="M1316.31 129.734C1318.42 111.439 1343.39 107.74 1350.71 124.637L1383.33 199.918C1386.65 207.583 1384.26 216.525 1377.56 221.514L1332.4 255.139C1319.75 264.556 1301.96 254.308 1303.76 238.641L1316.31 129.734Z" fill="#9F97F9"/>
    <path d="M1475.3 -75.853C1489.28 -85.6232 1508.58 -76.4457 1509.84 -59.431L1524.03 133.568C1525.31 150.977 1506.77 162.872 1491.48 154.457L1328.99 65.0526C1314.71 57.1947 1313.64 37.0771 1327 27.7423L1475.3 -75.853Z" fill="#9F97F9"/>
    <path d="M650.768 152.2C669.84 138.877 696.161 151.392 697.867 174.594L709.946 338.866C711.692 362.606 686.42 378.825 665.565 367.35L527.262 291.254C507.788 280.538 506.322 253.105 524.544 240.376L650.768 152.2Z" fill="#3E31E6"/>
    <path d="M627.153 169L639.51 330.462C640.591 344.592 625.678 354.372 613.15 347.749L498.626 287.208C486.589 280.844 485.702 263.936 497.007 256.349L627.153 169Z" fill="#3E31E5"/>
    <path d="M334.404 112.217C342.132 90.1639 370.99 85.0212 385.859 103.047L496.802 237.542C511.744 255.656 501.023 283.139 477.762 286.35L311.658 309.282C289.429 312.351 271.822 290.822 279.243 269.644L334.404 112.217Z" fill="#3E31E5"/>
    <path d="M416.5 140L539 288H321L416.5 140Z" fill="#3E31E5"/>
    <path d="M419 161L543 310H325L419 161Z" fill="#3E31E5"/>
    <path d="M351.097 160.826C356.763 144.653 377.926 140.882 388.83 154.101L517.921 310.597C528.879 323.881 521.017 344.035 503.959 346.39L310.683 373.074C294.381 375.324 281.47 359.536 286.911 344.005L351.097 160.826Z" fill="#9F97F9"/>
    <path d="M499.236 157.457C491.328 143.816 501.577 126.817 517.332 127.442L550.454 128.756C569.298 129.504 576.73 153.526 561.601 164.785L538.994 181.609C529.407 188.744 515.744 185.934 509.751 175.595L499.236 157.457Z" fill="#3E31E5"/>
    <path d="M470.059 143.864C460.906 132.302 468.778 115.242 483.516 114.704L537.913 112.719C554.425 112.116 562.956 132.217 551.052 143.675L519.287 174.249C511.63 181.619 499.288 180.785 492.692 172.453L470.059 143.864Z" fill="#9F97F9"/>
    <path d="M477.312 407.734C479.419 389.439 504.387 385.74 511.709 402.637L544.331 477.918C547.653 485.583 545.264 494.525 538.564 499.514L493.395 533.139C480.745 542.556 462.96 532.308 464.765 516.641L477.312 407.734Z" fill="url(#paint1_linear)"/>
    <path d="M636.296 202.147C650.282 192.377 669.585 201.554 670.836 218.569L685.027 411.568C686.307 428.977 667.775 440.872 652.481 432.457L489.992 343.053C475.711 335.195 474.636 315.077 487.999 305.742L636.296 202.147Z" fill="#9F97F9"/>
    </g>
    <defs>
    <linearGradient id="paint0_linear" x1="1378.5" y1="-12" x2="1481" y2="-79.5" gradientUnits="userSpaceOnUse">
    <stop offset="0.59375" stop-color="#001AFF"/>
    <stop offset="1" stop-color="#001AFF" stop-opacity="0"/>
    </linearGradient>
    <linearGradient id="paint1_linear" x1="505" y1="341" x2="505" y2="558" gradientUnits="userSpaceOnUse">
    <stop stop-color="#2C33E9"/>
    <stop offset="1" stop-color="#5D2CE9"/>
    </linearGradient>
    <clipPath id="clip0">
    <rect width="2000" height="390" fill="white"/>
    </clipPath>
    </defs>
    </svg>
    