<svg data-name="Layer 1" xmlns="http://www.w3.org/2000/svg" viewBox="0 0 24 24"><path fill="#594DEB" d="M22.024 2.278A5.5 5.5 0 0017.477 1.1l-3.283.688A4.487 4.487 0 0012 2.854a4.4 4.4 0 00-2.155-1.062l-3.361-.7A5.5 5.5 0 000 6.5v9.792A5.492 5.492 0 004.493 21.7l5.807 1.147a9.431 9.431 0 001.694.153 9.658 9.658 0 001.728-.157l5.762-1.143A5.5 5.5 0 0024 16.293V6.5a5.487 5.487 0 00-1.976-4.222zM10.5 19.829l-5.447-1.076A2.5 2.5 0 013 16.293V6.5A2.507 2.507 0 015.494 4a2.285 2.285 0 01.414.037l3.361.7A1.5 1.5 0 0110.5 6.212zM21 16.293a2.506 2.506 0 01-2.075 2.464L13.5 19.829V6.212a1.511 1.511 0 011.271-1.483l3.282-.687A2.5 2.5 0 0121 6.5z"/></svg>