<svg xmlns="http://www.w3.org/2000/svg" viewBox="0 0 24 24"><path fill="#594DEB" d="M22.419 10a8.269 8.269 0 00-4.442-3.063 8.252 8.252 0 00-2.962-4.377A8.177 8.177 0 002.6 12.375a5.78 5.78 0 00-2.412 6.319A5.85 5.85 0 005.944 23h9.636a8.29 8.29 0 008.3-6.759A8.127 8.127 0 0022.419 10zm-1.5 5.733A5.365 5.365 0 0115.58 20H5.944A2.891 2.891 0 013.1 17.958a2.8 2.8 0 012-3.446 1.5 1.5 0 00.83-2.345 5.171 5.171 0 013.381-8.2 5.506 5.506 0 01.776-.056 5.14 5.14 0 013.118 1.042A5.212 5.212 0 0115.22 8.4a1.5 1.5 0 001.287 1.288A5.232 5.232 0 0120 11.774a5.155 5.155 0 01.921 3.958z"/></svg>